<svg width="319" height="91" viewBox="0 0 319 91" fill="none" xmlns="http://www.w3.org/2000/svg">
<path d="M32.4584 38.0233L31.7268 52.4566V53.1218L36.1832 51.1929V51.592C36.1832 51.9024 36.0501 52.1462 35.7841 52.3236C35.518 52.4566 35.0303 52.7005 34.3208 53.0553C32.2367 54.1195 31.1282 54.7624 30.9951 54.9841C30.9065 55.1615 30.5961 56.137 30.064 57.9107C29.5762 59.6401 29.288 60.5712 29.1993 60.7043C24.8094 71.169 18.9563 76.4014 11.6398 76.4014C8.49152 76.4014 6.18573 75.2707 4.72244 73.0092C3.2148 70.7034 2.32796 68.4863 2.06191 66.3579C1.70717 63.0766 1.5298 60.2165 1.5298 57.7777L1.59632 52.5231V51.1929C1.59632 50.4391 1.9954 47.5125 2.79355 42.4131C3.10395 40.6838 3.63605 38.9101 4.38987 37.0921C5.72013 33.7221 7.31645 32.0371 9.17882 32.0371V33.0348C5.27671 39.5531 3.32566 47.9559 3.32566 58.2433C3.32566 62.0567 3.6804 65.0941 4.38987 67.3556C5.09934 69.617 6.69566 71.7898 9.17882 73.8739C9.71093 74.273 10.3982 74.4725 11.2407 74.4725C15.4089 74.4725 19.0893 72.5658 22.2819 68.7524C25.5189 64.8946 27.603 60.7486 28.5342 56.3144C27.8247 56.3587 27.1152 56.3809 26.4057 56.3809C21.3064 56.3809 17.5595 55.1393 15.165 52.6562C12.8149 50.1287 11.6398 45.6723 11.6398 39.287C11.6398 35.6953 11.9502 32.4583 12.571 29.5761C13.2361 26.6495 13.9678 24.3437 14.7659 22.6587C15.5641 20.9737 16.6948 19.5548 18.1581 18.4019C19.6214 17.2046 21.1512 16.606 22.7475 16.606C24.3438 16.606 25.6963 17.0273 26.8048 17.8698C27.9134 18.6679 28.8224 19.7321 29.5319 21.0624C30.8621 23.4569 31.8155 25.9622 32.3919 28.5784L32.4584 38.0233ZM30.5296 47.4016L31.0617 34.8972C31.0617 31.9706 30.7291 29.2214 30.064 26.6495C28.778 21.6832 26.6274 18.9783 23.6122 18.5349C23.3905 18.4906 23.1688 18.4684 22.947 18.4684C21.6611 18.4684 20.4417 19.067 19.2888 20.2643C18.1359 21.4171 17.2047 22.9469 16.4953 24.8537C15.7858 26.7604 15.1872 28.8445 14.6994 31.1059C13.8569 35.0523 13.4357 38.2672 13.4357 40.7503C13.4357 43.1891 13.7682 45.4506 14.4334 47.5347C15.1428 49.5744 16.3401 51.3481 18.0251 52.8557C19.7101 54.319 21.7498 55.0506 24.1443 55.0506L25.9401 55.1172C27.8469 55.1172 28.9332 54.6737 29.1993 53.7869C29.554 51.1707 29.9974 49.264 30.5296 48.0668V47.4016ZM50.0844 60.5712C49.508 63.4978 49.2198 65.9366 49.2198 67.8877C49.2198 69.8387 49.3528 71.2799 49.6188 72.2111C49.9292 73.0979 50.417 73.7852 51.0821 74.273C51.7916 74.7607 52.3902 75.0268 52.878 75.0711C53.4101 75.1155 54.0531 75.1155 54.8069 75.0711C57.9995 73.5191 59.9062 72.7432 60.527 72.7432C61.1921 72.7432 61.5247 72.854 61.5247 73.0757C61.5247 73.3861 60.8817 73.9182 59.5958 74.672C58.3099 75.4259 56.7136 75.9801 54.8069 76.3349C49.9292 76.3349 47.4904 74.1178 47.4904 69.6835C47.4904 69.1958 47.5126 68.6859 47.5569 68.1537C47.2909 68.6415 46.914 69.3953 46.4262 70.4152C45.9828 71.3907 45.628 72.1445 45.362 72.6766C45.0959 73.2087 44.6969 73.8517 44.1648 74.6055C43.6327 75.315 43.1005 75.8471 42.5684 76.2018C41.1052 77.133 39.398 77.5986 37.4469 77.5986C36.6044 77.5099 35.9171 77.3104 35.385 77C34.4982 76.5122 34.0548 75.4702 34.0548 73.8739C34.0548 71.036 35.8506 66.3135 39.4423 59.7066C39.7084 60.2387 39.8414 60.8373 39.8414 61.5024C39.8414 62.1232 39.6197 63.0101 39.1763 64.163C38.7772 65.2715 38.1121 66.8235 37.1809 68.8189C36.294 70.8143 35.7841 72.588 35.6511 74.1399C35.6511 75.0711 35.9615 75.5811 36.5823 75.6697C36.804 75.6697 37.2474 75.6697 37.9125 75.6697C39.5532 75.6697 41.216 74.6942 42.901 72.7432C44.6303 70.7478 45.9828 68.5972 46.9583 66.2914C47.9338 63.9412 48.4216 62.0789 48.4216 60.7043L49.1532 59.9061C49.774 59.9061 50.0844 60.1278 50.0844 60.5712ZM76.5567 72.7432C76.601 73.763 77.377 74.273 78.8846 74.273C79.7715 74.273 80.7692 74.0956 81.8777 73.7409C82.9863 73.3861 84.0505 73.1644 85.0704 73.0757C86.1346 72.987 86.6667 73.2531 86.6667 73.8739C84.8043 75.1155 82.2325 75.8471 78.9512 76.0688C78.7738 76.1132 78.5964 76.1353 78.4191 76.1353C77.1775 76.1353 76.2019 75.8471 75.4925 75.2707C74.8273 74.6499 74.4948 73.9847 74.4948 73.2753C74.4948 72.5658 74.5391 71.9672 74.6278 71.4794C74.6278 70.5039 74.8273 69.0849 75.2264 67.2226C75.6698 65.3602 75.8915 63.9634 75.8915 63.0322C75.0934 63.0322 73.7188 63.2096 71.7677 63.5643C69.861 63.8747 68.4864 64.163 67.6439 64.429C66.5354 69.9718 64.6065 73.6522 61.8573 75.4702C61.0591 76.0023 60.4383 76.2684 59.9949 76.2684C59.5958 76.2684 59.2854 76.1797 59.0637 76.0023C58.8863 75.7806 58.7977 75.5367 58.7977 75.2707C58.7977 74.9603 58.9972 74.5612 59.3963 74.0734C60.7709 74.1621 61.7908 73.497 62.4559 72.078C63.121 70.7478 63.6531 69.3288 64.0522 67.8212C64.4956 66.2692 64.8504 65.1385 65.1164 64.429C63.0323 63.5865 61.9903 62.5223 61.9903 61.2364C61.9903 58.8862 63.0102 57.2899 65.0499 56.4474C65.7594 56.1814 66.4688 56.0483 67.1783 56.0483C67.8878 56.0483 68.5308 56.2922 69.1072 56.78C69.728 57.2678 70.0384 57.9551 70.0384 58.8419C70.0384 59.7287 69.4619 60.9482 68.309 62.5001C68.4421 62.5001 69.2402 62.3228 70.7035 61.968C74.7387 60.9038 77.1775 60.3717 78.02 60.3717C78.02 61.7463 77.7761 63.8304 77.2883 66.6239C76.8006 69.3732 76.5567 71.4129 76.5567 72.7432ZM66.5797 57.8442C65.7372 57.8442 65.0277 58.7532 64.4513 60.5712C64.4513 61.3694 65.0942 62.0124 66.3802 62.5001C67.3113 61.5689 67.7769 60.6599 67.7769 59.7731C67.7769 59.4183 67.6661 59.0193 67.4444 58.5758C67.267 58.0881 66.9788 57.8442 66.5797 57.8442ZM116.598 66.3579C116.376 65.3824 116.265 63.8969 116.265 61.9015C116.265 59.9061 116.775 56.8243 117.795 52.6562C119.258 46.5813 121.497 40.8612 124.513 35.4958C127.572 30.1304 130.676 27.1595 133.825 26.583C134.756 26.583 135.554 26.9156 136.219 27.5807C136.884 28.2458 137.416 28.8223 137.815 29.31C138.259 29.7978 138.702 30.7733 139.146 32.2366C139.633 33.6556 139.877 34.8306 139.877 35.7618C139.877 36.693 139.855 37.4468 139.811 38.0233C139.811 38.4667 139.5 38.6884 138.88 38.6884H138.68C138.636 38.6884 138.613 38.6662 138.613 38.6219C138.347 34.7641 137.749 32.1701 136.818 30.8398C135.975 29.687 134.867 29.0883 133.492 29.044C131.674 29.044 129.523 31.1724 127.04 35.4293C124.601 39.6861 122.539 44.2755 120.854 49.1975C119.214 54.0751 118.393 57.9107 118.393 60.7043C118.393 63.4535 119.236 66.4466 120.921 69.6835C122.606 72.8762 124.978 74.4725 128.038 74.4725C131.097 74.4725 134.068 72.8762 136.951 69.6835C139.877 66.4909 141.673 63.2539 142.338 59.9726C142.826 60.1057 143.07 60.5047 143.07 61.1699C143.07 61.7907 143.026 62.2341 142.937 62.5001C141.917 65.7814 139.922 69.0184 136.951 72.2111C134.024 75.4037 131.097 77 128.171 77C125.289 77 122.828 75.9136 120.788 73.7409C118.793 71.5681 117.396 69.1071 116.598 66.3579ZM162.891 58.1768L163.024 60.7043C163.024 61.6355 162.957 62.3671 162.824 62.8992C162.736 63.387 162.669 63.7639 162.625 64.0299C162.58 64.296 162.47 64.6507 162.292 65.0941C162.115 65.4932 162.004 65.7814 161.96 65.9588C161.915 66.1362 161.76 66.4687 161.494 66.9565C161.228 67.4443 161.051 67.7547 160.962 67.8877C160.918 68.0207 160.718 68.3976 160.363 69.0184C160.053 69.5949 159.853 69.9718 159.765 70.1491H161.095C163.667 70.1491 167.436 68.9076 172.402 66.4244L172.934 67.023C168.677 70.4374 163.667 72.2997 157.902 72.6101L152.049 76.2018C151.517 76.6453 150.342 76.867 148.524 76.867C146.75 76.867 145.597 76.3792 145.065 75.4037C144.578 74.3838 144.334 72.8097 144.334 70.6812C144.334 68.5528 145.22 66.1362 146.994 63.4313C148.812 60.7264 150.896 59.374 153.246 59.374C154.311 59.374 154.998 59.8174 155.308 60.7043C152.825 61.4581 150.697 62.7662 148.923 64.6285C147.149 66.4909 146.263 68.6415 146.263 71.0803C146.263 71.9228 146.307 72.588 146.396 73.0757C146.484 73.5635 146.728 74.0069 147.127 74.406C147.526 74.8051 148.302 75.0046 149.455 75.0046C151.85 75.0046 153.801 74.0069 155.308 72.0115C154.865 71.2577 154.643 70.0383 154.643 68.3533C154.643 66.6239 154.776 65.0055 155.042 63.4978C155.353 61.9458 155.951 60.4604 156.838 59.0414C157.725 57.6225 158.833 56.913 160.164 56.913C161.494 56.913 162.403 57.3343 162.891 58.1768ZM161.161 61.3029L161.228 60.4382C161.228 59.5514 160.962 59.0193 160.43 58.8419C159.277 59.507 158.346 60.7043 157.636 62.4336C156.927 64.163 156.572 65.7593 156.572 67.2226C156.572 68.6859 156.794 69.4618 157.237 69.5505C158.479 68.841 159.432 67.6882 160.097 66.0918C160.807 64.4955 161.161 62.9435 161.161 61.4359V61.3029ZM218.429 72.5436C218.474 72.721 218.496 72.854 218.496 72.9427C218.496 74.0069 217.055 74.9603 214.172 75.8028C211.335 76.6453 209.184 77.0665 207.721 77.0665C202.222 77.0665 199.473 74.4725 199.473 69.2845C199.473 67.9099 199.806 65.9366 200.471 63.3648C201.136 60.793 201.468 58.8419 201.468 57.5116C198.675 58.3985 195.77 60.7708 192.755 64.6285C189.74 68.442 187.368 72.2997 185.638 76.2018C185.372 76.4679 185.018 76.6674 184.574 76.8005C184.131 76.9335 183.798 76.9113 183.576 76.7339C183.399 76.5122 183.31 76.224 183.31 75.8693C183.31 75.4702 183.488 74.8051 183.842 73.8739L187.966 60.0391C187.745 59.6844 187.456 59.507 187.102 59.507C185.949 59.507 183.931 61.2585 181.049 64.7616C180.295 65.6484 178.654 67.7325 176.127 71.0138C172.979 75.0046 170.939 77 170.008 77C169.919 77 169.786 76.9335 169.609 76.8005C169.431 76.6231 169.365 76.4901 169.409 76.4014L174.198 63.8969L177.258 55.1837C177.479 55.095 177.679 55.0506 177.856 55.0506C178.521 55.0506 178.854 55.4276 178.854 56.1814C178.854 56.9352 178.765 57.7112 178.588 58.5093C178.411 59.2631 177.657 61.4359 176.326 65.0276L186.37 56.913C187.212 56.4253 187.9 56.1814 188.432 56.1814C189.363 56.1814 189.829 56.913 189.829 58.3763C189.829 59.2188 189.563 60.7708 189.03 63.0322C188.543 65.2937 188.277 66.6018 188.232 66.9565C189.03 66.2914 190.693 64.5842 193.221 61.835C197.611 57.0904 200.692 54.7181 202.466 54.7181C203.087 54.7181 203.619 54.9176 204.062 55.3167C204.062 56.78 203.619 58.9528 202.732 61.835C201.845 64.7172 201.402 67.1117 201.402 69.0184C201.402 73.0979 203.708 75.1376 208.319 75.1376C210.802 75.1376 214.172 74.273 218.429 72.5436ZM222.354 80.5252L221.156 89.9036C220.979 90.347 220.646 91.4334 220.159 93.1627C219.671 94.892 219.405 96.0449 219.36 96.6214C218.341 99.9914 217.077 101.787 215.569 102.009L215.237 101.942C215.148 101.942 214.926 101.809 214.572 101.543C214.172 101.277 213.951 101.078 213.906 100.945C213.818 100.856 213.685 100.39 213.507 99.548C213.33 98.7055 213.153 97.8851 212.975 97.087C212.754 96.3332 212.643 95.269 212.643 93.8943C212.643 92.5197 212.754 91.2782 212.975 90.1696C213.153 89.1054 213.507 87.8638 214.039 86.4449C214.527 85.0259 214.993 83.8509 215.436 82.9197C215.835 81.9885 216.39 80.7469 217.099 79.1949C217.853 77.643 218.363 76.5566 218.629 75.9358C218.895 75.315 219.028 74.6277 219.028 73.8739L218.629 68.6193C218.629 65.9145 219.161 63.1431 220.225 60.3052C220.358 60.2608 220.469 60.2387 220.558 60.2387C221.489 60.2387 221.955 61.2364 221.955 63.2318C221.955 64.1186 221.799 65.0941 221.489 66.1584C222.908 63.8526 224.637 61.9237 226.677 60.3717C228.761 58.7754 230.867 57.7112 232.996 57.1791C235.301 57.4895 236.454 58.9306 236.454 61.5024C236.454 62.0789 236.388 62.744 236.255 63.4978C235.723 66.7348 234.326 69.7944 232.065 72.6766C230.69 74.406 229.448 75.3593 228.34 75.5367C228.295 75.5811 228.273 75.6697 228.273 75.8028C228.273 75.9358 228.495 76.0023 228.938 76.0023C229.426 76.0023 230.579 75.6476 232.397 74.9381C236.61 73.2974 239.714 71.6346 241.709 69.9496C242.197 69.5505 242.507 69.218 242.64 68.9519C242.684 68.3311 242.817 68.0429 243.039 68.0872C243.261 68.1316 243.372 68.3089 243.372 68.6193C243.372 68.8854 243.327 69.218 243.239 69.617C242.574 71.9672 240.113 74.0956 235.856 76.0023C232.929 77.2882 229.249 78.3746 224.815 79.2614C224.682 79.3058 224.46 79.3723 224.149 79.461C223.307 79.6827 222.886 79.8157 222.886 79.8601L222.354 80.5252ZM220.425 77.2661C218.252 80.0153 216.7 82.8088 215.769 85.6467C214.793 88.529 214.305 90.7682 214.305 92.3645C214.305 94.0052 214.372 95.1138 214.505 95.6902C214.638 96.311 214.727 96.7544 214.771 97.0205C214.815 97.3309 214.882 97.5526 214.971 97.6856C215.015 97.863 215.081 98.0625 215.17 98.2842C215.348 98.772 215.636 99.1045 216.035 99.2819C217.72 96.178 218.828 92.9188 219.36 89.5045C219.937 86.0901 220.292 82.0107 220.425 77.2661ZM232.397 59.9061C232.087 59.9061 231.732 59.9505 231.333 60.0391C228.717 60.7486 226.5 62.9435 224.682 66.6239C223.263 69.4175 222.553 72.0115 222.553 74.406C222.553 75.2485 222.642 76.0466 222.819 76.8005C224.859 76.6231 227.187 74.7164 229.803 71.0803C232.597 67.2226 233.993 64.1186 233.993 61.7685C233.993 60.5269 233.461 59.9061 232.397 59.9061ZM258.204 60.1057C256.918 63.387 256.275 66.4466 256.275 69.2845C256.275 73.9847 258.825 76.3349 263.924 76.3349C265.21 76.1575 266.164 75.8914 266.784 75.5367C267.45 75.182 268.159 74.5834 268.913 73.7409C269.667 72.854 270.398 72.1224 271.108 71.5459H271.44C271.219 74.0291 270.354 75.7141 268.846 76.6009C267.383 77.4434 265.365 77.8647 262.794 77.8647C257.251 77.8647 254.258 75.5367 253.814 70.8808C253.593 72.0337 252.573 73.3861 250.755 74.9381C248.981 76.4457 247.385 77.1995 245.966 77.1995C245.877 77.1995 245.766 77.1995 245.633 77.1995C242.884 76.4457 241.509 74.8051 241.509 72.2776C241.509 68.9962 243.217 65.8036 246.631 62.6997C249.291 60.2608 251.885 59.0414 254.413 59.0414C255.832 59.0414 257.096 59.3962 258.204 60.1057ZM243.571 71.945C243.571 72.6545 243.593 73.2309 243.638 73.6743C243.726 74.0734 243.948 74.4503 244.303 74.8051C244.702 75.1598 245.256 75.3372 245.966 75.3372C247.917 75.2485 249.868 73.6965 251.819 70.6812C253.814 67.6216 254.879 65.0055 255.012 62.8327C254.302 61.9458 253.327 61.5024 252.085 61.5024C250.489 61.5024 248.826 62.5223 247.096 64.562C245.367 66.6018 244.192 69.0628 243.571 71.945ZM283.346 70.0826C283.346 69.2845 283.346 67.9099 283.346 65.9588C283.391 63.9634 283.413 62.2562 283.413 60.8373C282.171 61.1033 280.353 62.6997 277.959 65.6262C275.608 68.5528 274.323 70.0826 274.101 70.2157C272.372 72.5214 271.019 74.1621 270.044 75.1376C269.644 75.6697 269.002 75.9358 268.115 75.9358V74.4725L270.975 65.2272C270.975 61.9902 271.529 59.5957 272.638 58.0437C272.948 57.6003 273.236 57.3786 273.502 57.3786C273.946 57.3786 274.167 58.1324 274.167 59.6401C274.167 61.1033 273.946 62.744 273.502 64.562C273.059 66.3357 272.837 67.8212 272.837 69.0184C273.192 68.6637 274.256 67.4221 276.03 65.2937C277.803 63.1653 278.868 61.9237 279.222 61.5689C279.533 61.3916 280.065 60.9482 280.819 60.2387C282.415 58.8197 283.812 58.1103 285.009 58.1103C285.674 58.1103 286.095 58.332 286.273 58.7754C286.317 59.2631 286.339 60.0613 286.339 61.1699C286.339 62.2341 286.162 63.9412 285.807 66.2914C285.452 68.5972 285.253 70.4374 285.209 71.812C285.209 73.8961 286.073 74.9381 287.803 74.9381C289.044 74.9381 290.241 74.6055 291.394 73.9404C292.547 73.2309 293.478 72.4549 294.188 71.6124C294.897 70.7256 295.718 69.7279 296.649 68.6193C297.58 67.4664 298.4 66.6239 299.11 66.0918V66.757C299.11 68.8854 297.735 71.1025 294.986 73.4083C292.237 75.6697 289.731 76.8005 287.47 76.8005H285.275C284.61 76.357 284.167 75.9358 283.945 75.5367C283.767 75.1376 283.634 74.8494 283.546 74.672C283.457 74.4947 283.391 74.2286 283.346 73.8739C283.346 73.4748 283.346 73.1866 283.346 73.0092V70.0826ZM300.108 59.3075C300.64 59.3075 300.883 59.8618 300.839 60.9703C300.795 62.0345 300.551 64.0299 300.108 66.9565C299.664 69.8387 299.442 71.5459 299.442 72.078V73.9404C299.442 74.4725 299.465 74.7607 299.509 74.8051C299.598 74.8494 299.686 74.9603 299.775 75.1376C299.864 75.315 299.974 75.3815 300.108 75.3372C300.285 75.2928 300.462 75.3372 300.64 75.4702C300.861 75.5589 301.127 75.5367 301.438 75.4037C303.211 75.4037 304.608 74.6499 305.628 73.1422C306.205 72.3441 306.67 71.6346 307.025 71.0138C307.424 70.393 307.801 69.4618 308.156 68.2203C308.555 66.9343 308.821 66.0697 308.954 65.6262C309.131 65.1385 309.353 64.2295 309.619 62.8992L310.084 60.9038C310.306 60.7708 310.572 60.7043 310.883 60.7043C311.237 60.7043 311.614 60.9703 312.013 61.5024V61.7685C312.013 63.2761 311.681 65.6041 311.016 68.7524C310.395 71.8563 310.084 74.4725 310.084 76.6009C310.572 76.2462 311.925 75.3815 314.142 74.0069C316.403 72.6323 317.667 71.8341 317.933 71.6124C318.243 71.3464 318.576 71.036 318.931 70.6812C319.285 70.3265 319.463 70.2378 319.463 70.4152C319.463 70.6812 318.886 71.7898 317.733 73.7409C317.512 73.9626 316.425 74.9159 314.474 76.6009C312.568 78.2416 311.526 79.1506 311.348 79.328C309.929 82.3876 308.954 87.2874 308.422 94.0274C308.244 96.2445 307.89 98.3729 307.357 100.413C306.338 104.27 303.854 106.199 299.908 106.199C299.42 106.199 298.799 106.177 298.046 106.133C297.336 106.133 296.738 105.822 296.25 105.202C295.762 104.625 295.518 103.871 295.518 102.94C295.518 99.3484 296.76 95.1803 299.243 90.4357C301.726 85.6911 304.497 81.7224 307.557 78.5298C307.956 77.643 308.156 76.4901 308.156 75.0711C308.156 73.6522 308.178 72.6988 308.222 72.2111C305.606 75.6254 303.078 77.3326 300.64 77.3326C300.595 77.3326 300.551 77.3326 300.507 77.3326C298.556 77.3326 297.58 75.1155 297.58 70.6812C297.58 70.3265 297.602 69.3953 297.647 67.8877C297.691 66.3357 298.112 63.6752 298.91 59.9061C298.955 59.8174 299.132 59.7066 299.442 59.5735C299.753 59.3962 299.974 59.3075 300.108 59.3075ZM307.291 82.188C305.961 82.188 303.987 84.8042 301.371 90.0366C298.799 95.3133 297.513 98.9937 297.513 101.078C297.513 103.206 298.245 104.27 299.708 104.27C299.797 104.27 300.063 104.27 300.507 104.27C300.994 104.27 301.615 104.027 302.369 103.539C303.123 103.051 303.744 102.297 304.231 101.277C304.763 100.257 305.185 99.1932 305.495 98.0847C305.85 96.9761 306.138 95.6237 306.36 94.0274C306.581 92.4311 306.759 91.0565 306.892 89.9036C307.025 88.7507 307.136 87.3539 307.224 85.7132C307.357 84.1169 307.468 82.964 307.557 82.2545C307.513 82.2545 307.468 82.2324 307.424 82.188H307.291Z" transform="translate(-1 -16)" fill="black"/>
</svg>
